<svg width="385" height="88" viewBox="0 0 385 88" fill="none" xmlns="http://www.w3.org/2000/svg">
<path d="M96.608 36L99.4271 37.0261L100.893 33H96.608V36ZM83.504 72L80.685 70.9739L80.6806 70.9858L80.6764 70.9978L83.504 72ZM79.112 81.072L76.6568 79.3481L76.6568 79.3481L79.112 81.072ZM60.176 86.832L59.4289 89.7375L59.4289 89.7375L60.176 86.832ZM55.784 85.032L52.9071 84.1814L52.2561 86.3835L54.2117 87.587L55.784 85.032ZM58.232 76.752L59.9885 74.32L56.5557 71.8407L55.3551 75.9014L58.232 76.752ZM60.968 78.048L61.83 75.1745L61.7633 75.1545L61.6956 75.1376L60.968 78.048ZM68.024 77.76L66.6268 75.1052L66.5967 75.121L66.5671 75.1375L68.024 77.76ZM70.184 75.024L67.4174 73.8638L67.4042 73.8953L67.3917 73.927L70.184 75.024ZM71.12 72.792L73.8866 73.9522L74.3772 72.7822L73.8795 71.6151L71.12 72.792ZM66.944 63L64.1586 64.1142L64.1712 64.1457L64.1845 64.1769L66.944 63ZM56.144 36V33H51.7129L53.3586 37.1142L56.144 36ZM69.608 36L72.5042 35.2175L71.905 33H69.608V36ZM75.152 56.52L78.0779 55.8575L78.0643 55.7972L78.0482 55.7375L75.152 56.52ZM76.88 64.152L73.9541 64.8145L79.7873 64.892L76.88 64.152ZM78.896 56.232L76.0027 55.4392L75.9954 55.4655L75.9887 55.492L78.896 56.232ZM84.44 36V33H82.1515L81.5467 35.2072L84.44 36ZM93.7889 34.9739L80.685 70.9739L86.3231 73.0261L99.4271 37.0261L93.7889 34.9739ZM80.6764 70.9978C79.3856 74.6396 78.0308 77.3911 76.6568 79.3481L81.5672 82.7959C83.3612 80.2409 84.9344 76.9444 86.3316 73.0022L80.6764 70.9978ZM76.6568 79.3481C75.3267 81.2425 73.8415 82.4962 72.2273 83.2495L74.7647 88.6865C77.4705 87.4238 79.7293 85.4135 81.5672 82.7959L76.6568 79.3481ZM72.2273 83.2495C70.5563 84.0293 68.4196 84.48 65.72 84.48V90.48C69.0684 90.48 72.1157 89.9227 74.7647 88.6865L72.2273 83.2495ZM65.72 84.48C63.9163 84.48 62.3234 84.2866 60.9231 83.9265L59.4289 89.7375C61.3886 90.2414 63.4917 90.48 65.72 90.48V84.48ZM60.9231 83.9265C59.4823 83.556 58.3064 83.0617 57.3563 82.477L54.2117 87.587C55.7576 88.5383 57.5097 89.244 59.4289 89.7375L60.9231 83.9265ZM58.6609 85.8826L61.1089 77.6026L55.3551 75.9014L52.9071 84.1814L58.6609 85.8826ZM56.4755 79.184C57.6249 80.0141 58.8824 80.6189 60.2404 80.9584L61.6956 75.1376C61.1336 74.9971 60.5671 74.7379 59.9885 74.32L56.4755 79.184ZM60.106 80.9215C61.4456 81.3234 62.987 81.48 64.64 81.48V75.48C63.317 75.48 62.4104 75.3486 61.83 75.1745L60.106 80.9215ZM64.64 81.48C66.3451 81.48 68.0261 81.1907 69.4809 80.3825L66.5671 75.1375C66.2939 75.2893 65.7189 75.48 64.64 75.48V81.48ZM69.4212 80.4148C71.1846 79.4867 72.2899 77.8679 72.9763 76.121L67.3917 73.927C67.0221 74.8681 66.6874 75.0733 66.6268 75.1052L69.4212 80.4148ZM72.9506 76.1842L73.8866 73.9522L68.3534 71.6318L67.4174 73.8638L72.9506 76.1842ZM73.8795 71.6151L69.7035 61.8231L64.1845 64.1769L68.3605 73.9689L73.8795 71.6151ZM69.7294 61.8858L58.9294 34.8858L53.3586 37.1142L64.1586 64.1142L69.7294 61.8858ZM56.144 39H69.608V33H56.144V39ZM66.7118 36.7825L72.2558 57.3025L78.0482 55.7375L72.5042 35.2175L66.7118 36.7825ZM72.2261 57.1825L73.9541 64.8145L79.8059 63.4895L78.0779 55.8575L72.2261 57.1825ZM79.7873 64.892L81.8033 56.972L75.9887 55.492L73.9727 63.412L79.7873 64.892ZM81.7893 57.0248L87.3333 36.7928L81.5467 35.2072L76.0027 55.4392L81.7893 57.0248ZM84.44 39H96.608V33H84.44V39ZM99.5223 87.12H96.5223V90.12H99.5223V87.12ZM99.5223 36V33H96.5223V36H99.5223ZM110.538 36L113.535 35.851L113.393 33H110.538V36ZM111.186 49.032L109.014 51.101L114.584 56.9493L114.183 48.883L111.186 49.032ZM109.746 47.52L106.775 47.1041L106.574 48.5394L107.574 49.589L109.746 47.52ZM111.978 41.184L109.442 39.582L109.442 39.582L111.978 41.184ZM116.442 36.864L114.939 34.2677L114.939 34.2677L116.442 36.864ZM130.482 37.512L128.806 39.9998L128.825 40.0125L128.844 40.0248L130.482 37.512ZM135.594 43.848L132.839 45.0355L132.852 45.0644L132.865 45.093L135.594 43.848ZM135.594 64.008L138.34 65.2178L138.34 65.2178L135.594 64.008ZM130.338 70.488L128.687 67.9837L128.674 67.9919L128.662 68.0002L130.338 70.488ZM114.642 69.84L112.547 71.9867L112.56 71.9997L112.573 72.0124L114.642 69.84ZM110.61 62.424L108.114 60.7599L107.401 61.8301L107.684 63.0848L110.61 62.424ZM111.762 60.696H114.762V50.7877L109.266 59.0319L111.762 60.696ZM111.762 87.12V90.12H114.762V87.12H111.762ZM123.354 61.416L125.718 63.2629L125.732 63.2454L125.746 63.2276L123.354 61.416ZM123.354 46.656L120.928 48.4205L120.958 48.4623L120.99 48.5029L123.354 46.656ZM114.93 45.432L116.674 47.8732L116.712 47.8463L116.748 47.8183L114.93 45.432ZM112.554 48.672L109.769 47.5578L109.753 47.5983L109.738 47.6392L112.554 48.672ZM112.482 59.256L109.627 60.177L109.645 60.2333L109.666 60.2888L112.482 59.256ZM114.786 62.568L116.604 60.1817L116.604 60.1817L114.786 62.568ZM102.522 87.12V36H96.5223V87.12H102.522ZM99.5223 39H110.538V33H99.5223V39ZM107.542 36.149L108.19 49.181L114.183 48.883L113.535 35.851L107.542 36.149ZM113.359 46.963L111.919 45.451L107.574 49.589L109.014 51.101L113.359 46.963ZM112.717 47.9359C113.002 45.9055 113.617 44.2079 114.515 42.786L109.442 39.582C108.036 41.8081 107.163 44.3345 106.775 47.1041L112.717 47.9359ZM114.515 42.786C115.414 41.362 116.551 40.2674 117.945 39.4603L114.939 34.2677C112.685 35.5726 110.847 37.358 109.442 39.582L114.515 42.786ZM117.945 39.4603C119.261 38.6984 120.82 38.28 122.706 38.28V32.28C119.889 32.28 117.271 32.9176 114.939 34.2677L117.945 39.4603ZM122.706 38.28C125.158 38.28 127.15 38.8842 128.806 39.9998L132.159 35.0242C129.398 33.1638 126.207 32.28 122.706 32.28V38.28ZM128.844 40.0248C130.486 41.0961 131.837 42.7099 132.839 45.0355L138.349 42.6605C136.952 39.4181 134.895 36.8079 132.121 34.9992L128.844 40.0248ZM132.865 45.093C133.889 47.3372 134.466 50.2227 134.466 53.856H140.466C140.466 49.6173 139.796 45.8308 138.324 42.603L132.865 45.093ZM134.466 53.856C134.466 57.4845 133.89 60.436 132.849 62.7982L138.34 65.2178C139.795 61.916 140.466 58.0995 140.466 53.856H134.466ZM132.849 62.7982C131.799 65.1812 130.394 66.8573 128.687 67.9837L131.99 72.9923C134.794 71.1427 136.894 68.4988 138.34 65.2178L132.849 62.7982ZM128.662 68.0002C127.006 69.1158 125.014 69.72 122.562 69.72V75.72C126.063 75.72 129.254 74.8362 132.015 72.9758L128.662 68.0002ZM122.562 69.72C119.927 69.72 118.074 68.9658 116.711 67.6676L112.573 72.0124C115.242 74.5542 118.67 75.72 122.562 75.72V69.72ZM116.738 67.6933C115.171 66.1636 114.092 64.223 113.537 61.7632L107.684 63.0848C108.473 66.577 110.082 69.5804 112.547 71.9867L116.738 67.6933ZM113.106 64.0881L114.258 62.3601L109.266 59.0319L108.114 60.7599L113.106 64.0881ZM108.762 60.696V87.12H114.762V60.696H108.762ZM111.762 84.12H99.5223V90.12H111.762V84.12ZM118.386 66.72C121.333 66.72 123.897 65.5939 125.718 63.2629L120.99 59.5691C120.411 60.3101 119.664 60.72 118.386 60.72V66.72ZM125.746 63.2276C127.532 60.8702 128.154 57.6049 128.154 54H122.154C122.154 57.1151 121.577 58.7938 120.963 59.6044L125.746 63.2276ZM128.154 54C128.154 50.4072 127.536 47.136 125.718 44.8091L120.99 48.5029C121.572 49.248 122.154 50.8728 122.154 54H128.154ZM125.781 44.8915C124.014 42.4629 121.442 41.28 118.458 41.28V47.28C119.698 47.28 120.39 47.6811 120.928 48.4205L125.781 44.8915ZM118.458 41.28C116.5 41.28 114.676 41.8546 113.112 43.0457L116.748 47.8183C117.201 47.4734 117.729 47.28 118.458 47.28V41.28ZM113.187 42.9908C111.607 44.1193 110.504 45.7189 109.769 47.5578L115.34 49.7862C115.756 48.7451 116.238 48.1847 116.674 47.8732L113.187 42.9908ZM109.738 47.6392C109.052 49.5089 108.762 51.6591 108.762 54H114.762C114.762 52.1169 115 50.7151 115.371 49.7048L109.738 47.6392ZM108.762 54C108.762 56.2431 109.028 58.3197 109.627 60.177L115.337 58.335C114.977 57.2163 114.762 55.7889 114.762 54H108.762ZM109.666 60.2888C110.349 62.1521 111.417 63.7727 112.968 64.9543L116.604 60.1817C116.139 59.8273 115.672 59.2399 115.299 58.2232L109.666 60.2888ZM112.968 64.9543C114.551 66.16 116.406 66.72 118.386 66.72V60.72C117.583 60.72 117.038 60.512 116.604 60.1817L112.968 64.9543ZM227.78 37.512L226.384 40.1677L226.411 40.1818L226.438 40.1953L227.78 37.512ZM234.476 43.92L231.857 45.3845L231.872 45.411L231.888 45.4372L234.476 43.92ZM234.476 64.152L231.876 62.6541L231.872 62.6613L231.868 62.6684L234.476 64.152ZM227.78 70.56L229.139 73.2342L229.148 73.2297L229.157 73.2253L227.78 70.56ZM207.98 70.56L206.603 73.2253L206.62 73.2344L206.638 73.2433L207.98 70.56ZM201.212 64.152L198.593 65.6165L198.608 65.643L198.624 65.6692L201.212 64.152ZM201.212 43.92L198.612 42.4221L198.608 42.4293L198.604 42.4364L201.212 43.92ZM207.98 37.512L209.321 40.1953L209.339 40.1864L209.357 40.1773L207.98 37.512ZM211.94 48.24L209.112 47.2368L209.112 47.2368L211.94 48.24ZM211.94 59.76L209.112 60.7632L209.118 60.778L209.123 60.7928L211.94 59.76ZM214.244 63L212.5 65.4412L212.539 65.4693L212.58 65.4962L214.244 63ZM221.516 63L223.18 65.4962L223.22 65.4693L223.259 65.4412L221.516 63ZM223.82 59.76L226.636 60.7928L226.642 60.778L226.647 60.7632L223.82 59.76ZM223.82 48.24L226.647 47.2368L226.647 47.2368L223.82 48.24ZM217.844 38.28C221.239 38.28 224.056 38.9442 226.384 40.1677L229.175 34.8563C225.84 33.1038 222.032 32.28 217.844 32.28V38.28ZM226.438 40.1953C228.775 41.364 230.565 43.0732 231.857 45.3845L237.094 42.4555C235.219 39.1028 232.544 36.54 229.121 34.8287L226.438 40.1953ZM231.888 45.4372C233.196 47.6698 233.924 50.4805 233.924 54H239.924C239.924 49.6475 239.019 45.7382 237.064 42.4028L231.888 45.4372ZM233.924 54C233.924 57.5175 233.197 60.3624 231.876 62.6541L237.075 65.6499C239.018 62.2776 239.924 58.3545 239.924 54H233.924ZM231.868 62.6684C230.575 64.9413 228.773 66.6698 226.403 67.8947L229.157 73.2253C232.546 71.4742 235.208 68.9307 237.083 65.6356L231.868 62.6684ZM226.42 67.8858C224.083 69.074 221.254 69.72 217.844 69.72V75.72C222.017 75.72 225.812 74.926 229.139 73.2342L226.42 67.8858ZM217.844 69.72C214.544 69.72 211.727 69.0796 209.321 67.8767L206.638 73.2433C209.992 74.9204 213.751 75.72 217.844 75.72V69.72ZM209.357 67.8947C206.978 66.6659 205.143 64.927 203.8 62.6348L198.624 65.6692C200.544 68.945 203.221 71.4781 206.603 73.2253L209.357 67.8947ZM203.83 62.6875C202.544 60.3892 201.836 57.5319 201.836 54H195.836C195.836 58.3401 196.711 62.2508 198.593 65.6165L203.83 62.6875ZM201.836 54C201.836 50.4661 202.545 47.6428 203.819 45.4036L198.604 42.4364C196.71 45.7652 195.836 49.6619 195.836 54H201.836ZM203.811 45.4179C205.154 43.0876 206.976 41.3679 209.321 40.1953L206.638 34.8287C203.223 36.5361 200.533 39.0884 198.612 42.4221L203.811 45.4179ZM209.357 40.1773C211.755 38.9383 214.559 38.28 217.844 38.28V32.28C213.736 32.28 209.965 33.1097 206.603 34.8467L209.357 40.1773ZM217.844 40.992C215.95 40.992 214.151 41.4563 212.58 42.5038L215.908 47.4961C216.352 47.1997 216.953 46.992 217.844 46.992V40.992ZM212.58 42.5038C210.89 43.6305 209.791 45.3238 209.112 47.2368L214.767 49.2432C215.144 48.1802 215.582 47.7135 215.908 47.4961L212.58 42.5038ZM209.112 47.2368C208.429 49.1636 208.148 51.457 208.148 54H214.148C214.148 51.839 214.395 50.2924 214.767 49.2432L209.112 47.2368ZM208.148 54C208.148 56.543 208.429 58.8364 209.112 60.7632L214.767 58.7568C214.395 57.7076 214.148 56.161 214.148 54H208.148ZM209.123 60.7928C209.809 62.6635 210.895 64.2947 212.5 65.4412L215.987 60.5588C215.576 60.2653 215.126 59.7365 214.756 58.7272L209.123 60.7928ZM212.58 65.4962C214.151 66.5437 215.95 67.008 217.844 67.008V61.008C216.953 61.008 216.352 60.8003 215.908 60.5038L212.58 65.4962ZM217.844 67.008C219.762 67.008 221.592 66.5546 223.18 65.4962L219.852 60.5038C219.423 60.7894 218.805 61.008 217.844 61.008V67.008ZM223.259 65.4412C224.864 64.2947 225.95 62.6635 226.636 60.7928L221.003 58.7272C220.633 59.7365 220.183 60.2653 219.772 60.5588L223.259 65.4412ZM226.647 60.7632C227.331 58.8364 227.612 56.543 227.612 54H221.612C221.612 56.161 221.365 57.7076 220.992 58.7568L226.647 60.7632ZM227.612 54C227.612 51.457 227.331 49.1636 226.647 47.2368L220.992 49.2432C221.365 50.2924 221.612 51.839 221.612 54H227.612ZM226.647 47.2368C225.968 45.3238 224.87 43.6305 223.18 42.5038L219.852 47.4961C220.178 47.7135 220.615 48.1802 220.992 49.2432L226.647 47.2368ZM223.18 42.5038C221.592 41.4454 219.762 40.992 217.844 40.992V46.992C218.805 46.992 219.423 47.2106 219.852 47.4961L223.18 42.5038ZM257.136 24.552H260.136V20.61L256.337 21.6605L257.136 24.552ZM258.36 62.928L256.304 65.1126L256.37 65.1747L256.439 65.2327L258.36 62.928ZM264.84 63.648L265.686 66.5261L265.738 66.511L265.789 66.494L264.84 63.648ZM267.144 62.424L270.101 61.9171L269.25 56.954L265.29 60.065L267.144 62.424ZM268.44 69.984L270.193 72.4186L271.713 71.3238L271.397 69.4771L268.44 69.984ZM263.904 72L264.667 74.9012L264.667 74.9012L263.904 72ZM251.16 71.568L250.069 74.3627L250.081 74.3671L250.092 74.3715L251.16 71.568ZM246.552 67.896L244.012 69.4925L244.028 69.5182L244.045 69.5435L246.552 67.896ZM244.896 61.2H241.896V61.2259L241.896 61.2517L244.896 61.2ZM244.896 27.936L244.097 25.0445L241.896 25.6529V27.936H244.896ZM267.864 36H270.864V33H267.864V36ZM267.864 44.712V47.712H270.864V44.712H267.864ZM238.704 44.712H235.704V47.712H238.704V44.712ZM238.704 36V33H235.704V36H238.704ZM254.136 24.552V59.184H260.136V24.552H254.136ZM254.136 59.184C254.136 61.2969 254.625 63.5328 256.304 65.1126L260.416 60.7434C260.463 60.7872 260.136 60.5271 260.136 59.184H254.136ZM256.439 65.2327C257.995 66.5294 259.927 67.008 261.888 67.008V61.008C260.873 61.008 260.452 60.7666 260.28 60.6233L256.439 65.2327ZM261.888 67.008C263.232 67.008 264.518 66.8698 265.686 66.5261L263.993 60.7699C263.53 60.9062 262.848 61.008 261.888 61.008V67.008ZM265.789 66.494C266.958 66.1041 268.037 65.5378 268.997 64.783L265.29 60.065C264.907 60.3662 264.45 60.6159 263.891 60.8019L265.789 66.494ZM264.187 62.9309L265.483 70.4909L271.397 69.4771L270.101 61.9171L264.187 62.9309ZM266.687 67.5494C265.855 68.1484 264.702 68.6877 263.14 69.0988L264.667 74.9012C266.753 74.3523 268.625 73.5476 270.193 72.4186L266.687 67.5494ZM263.14 69.0988C261.57 69.512 259.955 69.72 258.288 69.72V75.72C260.461 75.72 262.59 75.448 264.667 74.9012L263.14 69.0988ZM258.288 69.72C255.823 69.72 253.825 69.373 252.228 68.7645L250.092 74.3715C252.527 75.299 255.281 75.72 258.288 75.72V69.72ZM252.251 68.7733C250.831 68.2193 249.803 67.381 249.059 66.2485L244.045 69.5435C245.509 71.771 247.553 73.3807 250.069 74.3627L252.251 68.7733ZM249.092 66.2995C248.422 65.2334 247.938 63.5954 247.895 61.1483L241.896 61.2517C241.95 64.3726 242.57 67.1986 244.012 69.4925L249.092 66.2995ZM247.896 61.2V27.936H241.896V61.2H247.896ZM245.695 30.8275L257.935 27.4435L256.337 21.6605L244.097 25.0445L245.695 30.8275ZM264.864 36V44.712H270.864V36H264.864ZM267.864 41.712H238.704V47.712H267.864V41.712ZM241.704 44.712V36H235.704V44.712H241.704ZM238.704 39H267.864V33H238.704V39ZM279.278 70.488L277.901 73.1533L277.91 73.1579L277.918 73.1625L279.278 70.488ZM272.582 64.08L275.189 62.5964L275.189 62.5964L272.582 64.08ZM272.582 43.92L275.189 45.4036L275.189 45.4036L272.582 43.92ZM279.206 37.512L277.829 34.8467L277.819 34.8515L277.81 34.8563L279.206 37.512ZM298.718 37.512L297.245 40.1255L297.273 40.1412L297.301 40.1564L298.718 37.512ZM304.838 43.56L302.195 44.9794L302.2 44.9897L302.206 45L304.838 43.56ZM306.638 57.096V60.096H309.179L309.597 57.5892L306.638 57.096ZM278.126 57.096H275.126V60.096H278.126V57.096ZM278.126 50.544V47.544H275.126V50.544H278.126ZM301.238 50.544L302.31 53.3458L301.238 47.544V50.544ZM295.406 52.776H292.406V57.1363L296.478 55.5778L295.406 52.776ZM293.822 46.152L291.313 47.798L291.331 47.825L291.349 47.8516L293.822 46.152ZM285.11 44.928L283.471 42.4152L283.445 42.432L283.42 42.4493L285.11 44.928ZM282.662 48.312L279.853 47.2586L279.838 47.2975L279.825 47.3368L282.662 48.312ZM282.806 59.976L280.039 61.1362L280.046 61.1525L280.053 61.1688L282.806 59.976ZM285.47 63.144L283.958 65.7353L283.999 65.7593L284.041 65.7819L285.47 63.144ZM293.966 63L292.327 60.4872L292.301 60.504L292.276 60.5213L293.966 63ZM296.414 59.976L297.356 57.1279L294.693 56.2469L293.635 58.8441L296.414 59.976ZM306.206 63.216L309.058 64.1448L309.983 61.3058L307.148 60.3679L306.206 63.216ZM302.678 68.472L304.624 70.7545L304.63 70.7498L302.678 68.472ZM296.774 71.64L295.879 68.7766L295.87 68.7793L295.862 68.782L296.774 71.64ZM289.646 69.72C286.035 69.72 283.063 69.0467 280.637 67.8135L277.918 73.1625C281.348 74.9053 285.289 75.72 289.646 75.72V69.72ZM280.655 67.8227C278.284 66.5978 276.482 64.8693 275.189 62.5964L269.974 65.5636C271.849 68.8587 274.511 71.4022 277.901 73.1533L280.655 67.8227ZM275.189 62.5964C273.915 60.3572 273.206 57.5339 273.206 54H267.206C267.206 58.3381 268.08 62.2348 269.974 65.5636L275.189 62.5964ZM273.206 54C273.206 50.4661 273.915 47.6428 275.189 45.4036L269.974 42.4364C268.08 45.7652 267.206 49.6619 267.206 54H273.206ZM275.189 45.4036C276.49 43.1175 278.277 41.3886 280.601 40.1677L277.81 34.8563C274.47 36.6114 271.841 39.1545 269.974 42.4364L275.189 45.4036ZM280.583 40.1773C282.981 38.9383 285.785 38.28 289.07 38.28V32.28C284.962 32.28 281.191 33.1097 277.829 34.8467L280.583 40.1773ZM289.07 38.28C292.473 38.28 295.154 38.947 297.245 40.1255L300.191 34.8985C297.001 33.101 293.25 32.28 289.07 32.28V38.28ZM297.301 40.1564C299.489 41.3284 301.093 42.9272 302.195 44.9794L307.481 42.1406C305.799 39.0088 303.323 36.5756 300.134 34.8676L297.301 40.1564ZM302.206 45C303.324 47.0431 303.926 49.463 303.926 52.344H309.926C309.926 48.601 309.135 45.1649 307.469 42.12L302.206 45ZM303.926 52.344C303.926 53.1524 303.903 53.9609 303.858 54.7696L309.849 55.1024C309.9 54.1831 309.926 53.2636 309.926 52.344H303.926ZM303.858 54.7696C303.814 55.5708 303.75 56.173 303.678 56.6028L309.597 57.5892C309.717 56.867 309.798 56.0292 309.849 55.1024L303.858 54.7696ZM306.638 54.096H278.126V60.096H306.638V54.096ZM281.126 57.096V50.544H275.126V57.096H281.126ZM278.126 53.544H301.238V47.544H278.126V53.544ZM300.165 47.7422L294.333 49.9742L296.478 55.5778L302.31 53.3458L300.165 47.7422ZM298.406 52.776C298.406 49.5969 297.834 46.6931 296.294 44.4524L291.349 47.8516C291.921 48.6829 292.406 50.1951 292.406 52.776H298.406ZM296.33 44.506C294.663 41.9661 292.034 40.848 289.07 40.848V46.848C290.425 46.848 290.964 47.2659 291.313 47.798L296.33 44.506ZM289.07 40.848C287.05 40.848 285.139 41.3275 283.471 42.4152L286.748 47.4408C287.289 47.0885 288.017 46.848 289.07 46.848V40.848ZM283.42 42.4493C281.725 43.6049 280.584 45.3075 279.853 47.2586L285.471 49.3654C285.891 48.2445 286.382 47.6911 286.8 47.4067L283.42 42.4493ZM279.825 47.3368C279.15 49.2982 278.87 51.6273 278.87 54.216H284.87C284.87 52.0047 285.117 50.3978 285.499 49.2872L279.825 47.3368ZM278.87 54.216C278.87 56.7994 279.207 59.153 280.039 61.1362L285.572 58.8158C285.156 57.823 284.87 56.3366 284.87 54.216H278.87ZM280.053 61.1688C280.885 63.0883 282.161 64.6871 283.958 65.7353L286.981 60.5527C286.474 60.2569 285.975 59.7437 285.558 58.7832L280.053 61.1688ZM284.041 65.7819C285.727 66.695 287.635 67.08 289.646 67.08V61.08C288.392 61.08 287.517 60.841 286.898 60.5061L284.041 65.7819ZM289.646 67.08C291.826 67.08 293.93 66.6549 295.656 65.4787L292.276 60.5213C291.889 60.7851 291.114 61.08 289.646 61.08V67.08ZM295.604 65.5128C297.252 64.4381 298.449 62.9326 299.192 61.1079L293.635 58.8441C293.323 59.6114 292.887 60.1219 292.327 60.4872L295.604 65.5128ZM295.471 62.8241L305.263 66.0641L307.148 60.3679L297.356 57.1279L295.471 62.8241ZM303.353 62.2872C302.855 63.8169 301.996 65.1054 300.725 66.1942L304.63 70.7498C306.72 68.9586 308.212 66.7431 309.058 64.1448L303.353 62.2872ZM300.731 66.1895C299.443 67.2879 297.845 68.1622 295.879 68.7766L297.668 74.5034C300.31 73.6778 302.648 72.4401 304.624 70.7545L300.731 66.1895ZM295.862 68.782C293.916 69.4029 291.849 69.72 289.646 69.72V75.72C292.434 75.72 295.119 75.3171 297.686 74.498L295.862 68.782ZM317.373 70.992L316.281 73.7864L316.308 73.7966L316.334 73.8063L317.373 70.992ZM309.741 65.88L307.456 63.9356L305.742 65.9497L307.525 67.9028L309.741 65.88ZM315.501 59.112L317.865 57.2651L315.6 54.3664L313.216 57.1676L315.501 59.112ZM320.253 63L318.834 65.6435L318.873 65.6639L318.911 65.6833L320.253 63ZM330.621 63.864L331.852 66.5998L331.852 66.5998L330.621 63.864ZM331.341 60.264L329.334 62.4939L329.399 62.5522L329.467 62.6066L331.341 60.264ZM328.461 59.184L327.873 62.1257L328.461 59.184ZM323.421 58.176L322.827 61.1165L322.833 61.1177L323.421 58.176ZM313.773 54.144L311.679 56.2927L311.707 56.3199L311.736 56.3463L313.773 54.144ZM312.765 41.4L315.251 43.0796L315.261 43.0643L315.271 43.0488L312.765 41.4ZM318.309 37.008L319.522 39.7516L319.544 39.7419L319.566 39.7319L318.309 37.008ZM344.157 41.472L346.409 43.4544L348.082 41.5532L346.489 39.5844L344.157 41.472ZM338.325 48.096L335.982 49.9701L338.215 52.7608L340.577 50.0784L338.325 48.096ZM333.861 44.712L332.636 47.4505L332.636 47.4505L333.861 44.712ZM325.437 43.848L326.165 46.7584L326.224 46.7435L326.283 46.7261L325.437 43.848ZM323.709 44.712L325.83 46.8333L325.83 46.8333L323.709 44.712ZM323.997 47.808L322.076 50.1127L322.179 50.1984L322.289 50.2746L323.997 47.808ZM327.381 48.96L326.776 51.8984L326.787 51.9007L326.799 51.903L327.381 48.96ZM333.933 50.256L333.351 53.199L333.374 53.2035L333.396 53.2076L333.933 50.256ZM342.501 66.672L340.005 65.0079L340.005 65.0079L342.501 66.672ZM336.885 71.136L338.054 73.8989L338.076 73.8894L338.098 73.8796L336.885 71.136ZM327.453 69.72C324.178 69.72 321.173 69.1971 318.412 68.1777L316.334 73.8063C319.813 75.0909 323.528 75.72 327.453 75.72V69.72ZM318.464 68.1976C315.777 67.1477 313.631 65.6913 311.956 63.8572L307.525 67.9028C309.883 70.4847 312.825 72.4363 316.281 73.7864L318.464 68.1976ZM312.026 67.8244L317.786 61.0564L313.216 57.1676L307.456 63.9356L312.026 67.8244ZM313.137 60.9589C314.628 62.8678 316.553 64.4191 318.834 65.6435L321.671 60.3565C320.017 59.4689 318.774 58.4282 317.865 57.2651L313.137 60.9589ZM318.911 65.6833C321.379 66.9171 324.076 67.512 326.949 67.512V61.512C324.926 61.512 323.159 61.0989 321.595 60.3167L318.911 65.6833ZM326.949 67.512C328.698 67.512 330.38 67.2623 331.852 66.5998L329.39 61.1282C328.942 61.3297 328.176 61.512 326.949 61.512V67.512ZM331.852 66.5998C332.685 66.2247 333.52 65.6509 334.142 64.7797C334.783 63.8819 335.061 62.8609 335.061 61.848H329.061C329.061 61.811 329.066 61.7282 329.1 61.617C329.134 61.503 329.189 61.3907 329.26 61.2923C329.402 61.0931 329.516 61.0712 329.39 61.1282L331.852 66.5998ZM335.061 61.848C335.061 60.3617 334.479 58.9327 333.215 57.9214L329.467 62.6066C329.361 62.5221 329.237 62.3804 329.15 62.1894C329.067 62.0064 329.061 61.8727 329.061 61.848H335.061ZM333.348 58.0341C332.714 57.4635 331.963 57.1044 331.314 56.861C330.634 56.6059 329.866 56.4056 329.049 56.2423L327.873 62.1257C328.496 62.2504 328.928 62.3741 329.208 62.479C329.519 62.5956 329.488 62.6325 329.334 62.4939L333.348 58.0341ZM329.049 56.2423L324.009 55.2343L322.833 61.1177L327.873 62.1257L329.049 56.2423ZM324.015 55.2355C319.686 54.3604 317.123 53.1565 315.81 51.9417L311.736 56.3463C314.262 58.6835 318.132 60.1676 322.827 61.1165L324.015 55.2355ZM315.867 51.9953C314.646 50.8064 313.965 49.2416 313.965 47.016H307.965C307.965 50.6464 309.156 53.8336 311.679 56.2927L315.867 51.9953ZM313.965 47.016C313.965 45.7001 314.355 44.4058 315.251 43.0796L310.279 39.7204C308.775 41.9462 307.965 44.3959 307.965 47.016H313.965ZM315.271 43.0488C316.084 41.8139 317.422 40.6806 319.522 39.7516L317.095 34.2644C314.204 35.5434 311.846 37.3381 310.259 39.7511L315.271 43.0488ZM319.566 39.7319C321.54 38.8209 324.264 38.28 327.885 38.28V32.28C323.73 32.28 320.07 32.8911 317.052 34.2841L319.566 39.7319ZM327.885 38.28C331.249 38.28 334.092 38.7673 336.469 39.669L338.597 34.059C335.406 32.8487 331.817 32.28 327.885 32.28V38.28ZM336.469 39.669C338.831 40.565 340.574 41.814 341.825 43.3596L346.489 39.5844C344.476 37.098 341.803 35.275 338.597 34.059L336.469 39.669ZM341.905 39.4896L336.073 46.1136L340.577 50.0784L346.409 43.4544L341.905 39.4896ZM340.668 46.2219C339.193 44.3783 337.309 42.9679 335.086 41.9735L332.636 47.4505C334.061 48.0881 335.153 48.9337 335.982 49.9701L340.668 46.2219ZM335.086 41.9735C332.914 41.0017 330.674 40.488 328.389 40.488V46.488C329.752 46.488 331.16 46.7903 332.636 47.4505L335.086 41.9735ZM328.389 40.488C327.045 40.488 325.759 40.6262 324.59 40.9699L326.283 46.7261C326.747 46.5898 327.429 46.488 328.389 46.488V40.488ZM324.709 40.9376C323.641 41.2048 322.493 41.6851 321.588 42.5907L325.83 46.8333C325.756 46.9072 325.719 46.9171 325.771 46.8913C325.824 46.8644 325.947 46.8129 326.165 46.7584L324.709 40.9376ZM321.588 42.5907C320.604 43.5741 320.133 44.8339 320.133 46.152H326.133C326.133 46.2022 326.123 46.3215 326.062 46.4742C326 46.6303 325.911 46.7528 325.83 46.8333L321.588 42.5907ZM320.133 46.152C320.133 47.8469 320.968 49.1894 322.076 50.1127L325.917 45.5033C325.873 45.4665 325.936 45.5068 326.009 45.6463C326.089 45.7997 326.133 45.9819 326.133 46.152H320.133ZM322.289 50.2746C323.453 51.0803 325.11 51.5553 326.776 51.8984L327.986 46.0216C327.248 45.8698 326.687 45.7194 326.278 45.58C325.845 45.4328 325.697 45.336 325.705 45.3414L322.289 50.2746ZM326.799 51.903L333.351 53.199L334.515 47.313L327.963 46.017L326.799 51.903ZM333.396 53.2076C336.785 53.8238 338.712 54.8651 339.716 55.9579L344.134 51.8981C341.874 49.4389 338.473 48.0322 334.47 47.3044L333.396 53.2076ZM339.716 55.9579C340.82 57.1594 341.373 58.563 341.373 60.336H347.373C347.373 57.117 346.294 54.2486 344.134 51.8981L339.716 55.9579ZM341.373 60.336C341.373 62.1241 340.909 63.6518 340.005 65.0079L344.997 68.3361C346.589 65.9482 347.373 63.2519 347.373 60.336H341.373ZM340.005 65.0079C339.135 66.3131 337.758 67.4696 335.671 68.3924L338.098 73.8796C341.004 72.5944 343.371 70.7749 344.997 68.3361L340.005 65.0079ZM335.716 68.3731C333.706 69.2234 330.992 69.72 327.453 69.72V75.72C331.497 75.72 335.072 75.1606 338.054 73.8989L335.716 68.3731Z" fill="white" fill-opacity="0.9"/>
<path d="M161 35L146.048 34.7467V77.1685C146.048 77.1685 151.654 60.3083 157.83 47.3625C160.877 40.9763 164.137 38.092 166.784 36.4328C169.503 34.7286 173.961 34.3435 173.961 34.3435C173.961 34.3435 176.151 34.2374 177.653 34.258C178.429 34.2687 179.202 34.2944 179.893 34.3435C182.354 34.5186 184.268 35.3003 185.978 36.4328C187.714 37.5827 189.231 39.1041 189.873 42.013C191.892 51.1582 191.18 78.1186 191.18 78.1186" stroke="white" stroke-opacity="0.9" stroke-width="3" stroke-linecap="round"/>
<path d="M190.192 42.5926C190.192 42.5926 185.774 34.5035 173.778 48.9933C170.49 52.9646 170.644 53.3161 168.674 56.9462C164.493 64.6501 161.7 73.7052 160.754 76.9997C160.52 77.8168 160.399 78.2795 160.399 78.2795" stroke="white" stroke-opacity="0.9" stroke-width="3" stroke-linecap="round"/>
<path d="M177.497 78.2793C177.497 78.2793 178.065 64.868 178.017 62.5934C177.898 57.0113 176.978 53.4346 176.978 53.4346" stroke="white" stroke-opacity="0.9" stroke-width="3" stroke-linecap="round"/>
<path d="M17.8455 21C17.8455 22.1046 18.741 23 19.8455 23C20.9501 23 21.8455 22.1046 21.8455 21H17.8455ZM19.8455 2H21.8455C21.8455 0.895431 20.9501 0 19.8455 0V2ZM2 2V0C0.895431 0 0 0.895431 0 2L2 2ZM2 78H0C0 79.0582 0.824318 79.9333 1.88065 79.9964C2.93698 80.0596 3.85968 79.289 3.98575 78.2383L2 78ZM45.5067 77.7831C45.387 78.8812 46.18 79.8684 47.2781 79.9882C48.3761 80.108 49.3634 79.3149 49.4832 78.2169L45.5067 77.7831ZM14.2465 77.6589C14.0581 78.7472 14.7876 79.7823 15.876 79.9707C16.9644 80.1591 17.9995 79.4295 18.1879 78.3411L14.2465 77.6589ZM35.2778 59C35.2778 57.8954 34.3823 57 33.2778 57C32.1732 57 31.2778 57.8954 31.2778 59H35.2778ZM31.2778 78C31.2778 79.1046 32.1732 80 33.2778 80C34.3823 80 35.2778 79.1046 35.2778 78H31.2778ZM21.8455 21V2H17.8455V21H21.8455ZM19.8455 0H2V4H19.8455V0ZM0 2V78H4V2H0ZM3.98575 78.2383C4.94097 70.2778 6.94343 58.8113 10.9806 49.3887C15.074 39.8349 20.8613 33.2308 29.0126 33.2308V29.2308C18.2687 29.2308 11.5119 37.9921 7.30392 47.8133C3.03976 57.7657 0.983551 69.6838 0.014245 77.7617L3.98575 78.2383ZM29.0126 33.2308C33.3696 33.2308 36.3 35.0053 38.794 38.287L41.9787 35.8668C38.8514 31.7517 34.81 29.2308 29.0126 29.2308V33.2308ZM38.794 38.287C42.3069 42.9095 44.342 49.7977 45.3059 57.1739C46.2634 64.5014 46.1317 72.0544 45.5067 77.7831L49.4832 78.2169C50.1377 72.2167 50.2764 64.3411 49.2722 56.6556C48.2742 49.019 46.1154 41.3101 41.9787 35.8668L38.794 38.287ZM39.58 35.2467C34.2788 37.5822 29.0831 41.3826 24.6364 48.0695C20.2142 54.7196 16.5861 64.1431 14.2465 77.6589L18.1879 78.3411C20.467 65.1748 23.9476 56.3291 27.9672 50.2844C31.9624 44.2764 36.5419 40.9562 41.1927 38.9072L39.58 35.2467ZM31.2778 59V78H35.2778V59H31.2778Z" fill="#EFEFEF"/>
</svg>
