<svg width="132" height="83" viewBox="0 0 132 83" fill="none" xmlns="http://www.w3.org/2000/svg">
<path d="M4.392 67V15.736H16.632V37.552C17.688 35.152 19.2 33.352 21.168 32.152C23.136 30.904 25.416 30.28 28.008 30.28C30.504 30.28 32.664 30.76 34.488 31.72C36.36 32.68 37.824 34.096 38.88 35.968C39.936 37.84 40.464 40.192 40.464 43.024V67H28.224V46.408C28.224 43.816 27.744 42.04 26.784 41.08C25.872 40.072 24.648 39.568 23.112 39.568C21.96 39.568 20.88 39.856 19.872 40.432C18.864 41.008 18.072 41.92 17.496 43.168C16.92 44.416 16.632 46.048 16.632 48.064V67H4.392ZM82.2696 31L69.1656 67C67.8216 70.792 66.3576 73.816 64.7736 76.072C63.1896 78.328 61.3176 79.96 59.1576 80.968C56.9976 81.976 54.4056 82.48 51.3816 82.48C49.3656 82.48 47.5176 82.264 45.8376 81.832C44.1576 81.4 42.6936 80.8 41.4456 80.032L43.8936 71.752C44.7576 72.376 45.6696 72.808 46.6296 73.048C47.5896 73.336 48.8136 73.48 50.3016 73.48C51.6936 73.48 52.8216 73.24 53.6856 72.76C54.5976 72.28 55.3176 71.368 55.8456 70.024L56.7816 67.792L52.6056 58L41.8056 31H55.2696L60.8136 51.52L62.5416 59.152L64.5576 51.232L70.1016 31H82.2696ZM85.1839 82.12V31H96.1999L96.8479 44.032L95.4079 42.52C95.7439 40.12 96.4879 38.008 97.6399 36.184C98.7919 34.36 100.28 32.92 102.104 31.864C103.928 30.808 106.016 30.28 108.368 30.28C111.344 30.28 113.936 31.024 116.144 32.512C118.352 33.952 120.056 36.064 121.256 38.848C122.504 41.584 123.128 44.92 123.128 48.856C123.128 52.792 122.504 56.176 121.256 59.008C120.008 61.84 118.256 64 116 65.488C113.792 66.976 111.2 67.72 108.224 67.72C104.96 67.72 102.32 66.76 100.304 64.84C98.2879 62.872 96.9439 60.4 96.2719 57.424L97.4239 55.696V82.12H85.1839ZM104.048 58.72C106.16 58.72 107.816 57.952 109.016 56.416C110.216 54.832 110.816 52.36 110.816 49C110.816 45.64 110.216 43.192 109.016 41.656C107.864 40.072 106.232 39.28 104.12 39.28C102.776 39.28 101.6 39.664 100.592 40.432C99.5839 41.152 98.7919 42.232 98.2159 43.672C97.6879 45.112 97.4239 46.888 97.4239 49C97.4239 51.016 97.6639 52.768 98.1439 54.256C98.6719 55.696 99.4399 56.8 100.448 57.568C101.456 58.336 102.656 58.72 104.048 58.72Z" fill="white" fill-opacity="0.5"/>
<mask id="mask0_209_365" style="mask-type:alpha" maskUnits="userSpaceOnUse" x="4" y="15" width="120" height="68">
<path d="M4.392 67V15.736H16.632V37.552C17.688 35.152 19.2 33.352 21.168 32.152C23.136 30.904 25.416 30.28 28.008 30.28C30.504 30.28 32.664 30.76 34.488 31.72C36.36 32.68 37.824 34.096 38.88 35.968C39.936 37.84 40.464 40.192 40.464 43.024V67H28.224V46.408C28.224 43.816 27.744 42.04 26.784 41.08C25.872 40.072 24.648 39.568 23.112 39.568C21.96 39.568 20.88 39.856 19.872 40.432C18.864 41.008 18.072 41.92 17.496 43.168C16.92 44.416 16.632 46.048 16.632 48.064V67H4.392ZM82.2696 31L69.1656 67C67.8216 70.792 66.3576 73.816 64.7736 76.072C63.1896 78.328 61.3176 79.96 59.1576 80.968C56.9976 81.976 54.4056 82.48 51.3816 82.48C49.3656 82.48 47.5176 82.264 45.8376 81.832C44.1576 81.4 42.6936 80.8 41.4456 80.032L43.8936 71.752C44.7576 72.376 45.6696 72.808 46.6296 73.048C47.5896 73.336 48.8136 73.48 50.3016 73.48C51.6936 73.48 52.8216 73.24 53.6856 72.76C54.5976 72.28 55.3176 71.368 55.8456 70.024L56.7816 67.792L52.6056 58L41.8056 31H55.2696L60.8136 51.52L62.5416 59.152L64.5576 51.232L70.1016 31H82.2696ZM85.1839 82.12V31H96.1999L96.8479 44.032L95.4079 42.52C95.7439 40.12 96.4879 38.008 97.6399 36.184C98.7919 34.36 100.28 32.92 102.104 31.864C103.928 30.808 106.016 30.28 108.368 30.28C111.344 30.28 113.936 31.024 116.144 32.512C118.352 33.952 120.056 36.064 121.256 38.848C122.504 41.584 123.128 44.92 123.128 48.856C123.128 52.792 122.504 56.176 121.256 59.008C120.008 61.84 118.256 64 116 65.488C113.792 66.976 111.2 67.72 108.224 67.72C104.96 67.72 102.32 66.76 100.304 64.84C98.2879 62.872 96.9439 60.4 96.2719 57.424L97.4239 55.696V82.12H85.1839ZM104.048 58.72C106.16 58.72 107.816 57.952 109.016 56.416C110.216 54.832 110.816 52.36 110.816 49C110.816 45.64 110.216 43.192 109.016 41.656C107.864 40.072 106.232 39.28 104.12 39.28C102.776 39.28 101.6 39.664 100.592 40.432C99.5839 41.152 98.7919 42.232 98.2159 43.672C97.6879 45.112 97.4239 46.888 97.4239 49C97.4239 51.016 97.6639 52.768 98.1439 54.256C98.6719 55.696 99.4399 56.8 100.448 57.568C101.456 58.336 102.656 58.72 104.048 58.72Z" fill="white" fill-opacity="0.5"/>
</mask>
<g mask="url(#mask0_209_365)">
<rect x="-7" y="51" width="147" height="51" fill="black" fill-opacity="0.26"/>
</g>
</svg>
