<svg width="140" height="140" viewBox="0 0 140 140" fill="none" xmlns="http://www.w3.org/2000/svg">
<circle cx="70" cy="70" r="70" fill="url(#paint0_linear_60_219)"/>
<path d="M64.3027 44.3125C64.3027 45.417 65.1982 46.3125 66.3027 46.3125C67.4073 46.3125 68.3027 45.417 68.3027 44.3125H64.3027ZM66.3027 19.2666H68.3027C68.3027 18.162 67.4073 17.2666 66.3027 17.2666V19.2666ZM42.3853 19.2666V17.2666C41.2807 17.2666 40.3853 18.162 40.3853 19.2666H42.3853ZM42.3853 119.45H40.3853C40.3853 120.508 41.2085 121.382 42.264 121.446C43.3195 121.511 44.2425 120.742 44.3706 119.692L42.3853 119.45ZM93.8325 65.5051L95.4151 64.2823L95.4151 64.2823L93.8325 65.5051ZM101.372 119.23C101.25 120.327 102.041 121.316 103.139 121.438C104.237 121.56 105.226 120.768 105.348 119.671L101.372 119.23ZM59.4701 119.103C59.2786 120.191 60.0053 121.228 61.0932 121.42C62.181 121.611 63.2181 120.885 63.4096 119.797L59.4701 119.103ZM86.3053 94.4042C86.3053 93.2996 85.4098 92.4042 84.3053 92.4042C83.2007 92.4042 82.3053 93.2996 82.3053 94.4042H86.3053ZM82.3053 119.45C82.3053 120.555 83.2007 121.45 84.3053 121.45C85.4098 121.45 86.3053 120.555 86.3053 119.45H82.3053ZM68.3027 44.3125V19.2666H64.3027V44.3125H68.3027ZM66.3027 17.2666H42.3853V21.2666H66.3027V17.2666ZM40.3853 19.2666V119.45H44.3853V19.2666H40.3853ZM44.3706 119.692C45.6529 109.181 48.345 93.9974 53.7913 81.4949C59.2892 68.8742 67.2052 59.7987 78.5889 59.7987V55.7987C64.6483 55.7987 55.7522 66.978 50.1241 79.8975C44.4446 92.9352 41.697 108.577 40.4 119.208L44.3706 119.692ZM78.5889 59.7987C84.6872 59.7987 88.8051 62.2697 92.2499 66.728L95.4151 64.2823C91.326 58.99 86.0999 55.7987 78.5889 55.7987V59.7987ZM92.2499 66.728C97.058 72.9508 99.8044 82.1578 101.101 91.9189C102.392 101.632 102.214 111.637 101.372 119.23L105.348 119.671C106.22 111.802 106.405 101.469 105.066 91.3921C103.734 81.3631 100.859 71.3282 95.4151 64.2823L92.2499 66.728ZM93.0373 63.67C86.0465 66.6993 79.1856 71.6284 73.2989 80.3352C67.4364 89.0062 62.5966 101.339 59.4701 119.103L63.4096 119.797C66.4734 102.389 71.1609 90.639 76.6126 82.5756C82.0401 74.548 88.2804 70.0907 94.6277 67.3402L93.0373 63.67ZM82.3053 94.4042V119.45H86.3053V94.4042H82.3053Z" fill="#EFEFEF"/>
<defs>
<linearGradient id="paint0_linear_60_219" x1="70" y1="0" x2="70" y2="143.072" gradientUnits="userSpaceOnUse">
<stop stop-color="#271241"/>
<stop offset="1"/>
</linearGradient>
</defs>
</svg>
